<svg width="50" height="50" viewBox="0 0 50 50" fill="none" xmlns="http://www.w3.org/2000/svg">
<rect x="4.00049" y="4.00024" width="42" height="42" rx="12" fill="url(#paint0_linear_1_172)"/>
<rect x="2.00049" y="2.00024" width="46" height="46" rx="14" stroke="url(#paint1_linear_1_172)" stroke-opacity="0.4" stroke-width="4"/>
<path d="M37.2851 23.366L26.3726 12.4535C25.9361 12.017 25.3299 11.7502 24.663 11.7502H16.1755C14.8417 11.7502 13.7505 12.8415 13.7505 14.1752V22.6627C13.7505 23.3296 14.0172 23.9359 14.4659 24.3845L25.3784 35.297C25.8149 35.7335 26.4211 36.0002 27.088 36.0002C27.7549 36.0002 28.3611 35.7335 28.7976 35.2849L37.2851 26.7974C37.7337 26.3609 38.0005 25.7546 38.0005 25.0877C38.0005 24.4209 37.7216 23.8025 37.2851 23.366ZM27.088 33.5874L16.1755 22.6627V14.1752H24.663V14.1631L35.5755 25.0756L27.088 33.5874Z" fill="white"/>
<path d="M19.2067 19.0252C20.2112 19.0252 21.0254 18.2109 21.0254 17.2064C21.0254 16.202 20.2112 15.3877 19.2067 15.3877C18.2022 15.3877 17.3879 16.202 17.3879 17.2064C17.3879 18.2109 18.2022 19.0252 19.2067 19.0252Z" fill="white"/>
<path d="M22.1167 24.542C22.1167 25.2331 22.3956 25.8394 22.8442 26.3001L27.0879 30.5439L31.3317 26.3001C31.7803 25.8515 32.0592 25.221 32.0592 24.542C32.0592 23.1719 30.9437 22.0564 29.5736 22.0564C28.8824 22.0564 28.2641 22.3353 27.8155 22.7839L27.0879 23.5114L26.3604 22.796C25.9118 22.3353 25.2813 22.0564 24.6023 22.0564C23.2322 22.0564 22.1167 23.1719 22.1167 24.542Z" fill="white"/>
<defs>
<linearGradient id="paint0_linear_1_172" x1="6.99976" y1="13.5002" x2="44.4649" y2="11.328" gradientUnits="userSpaceOnUse">
<stop/>
<stop offset="1" stop-color="#D73857"/>
</linearGradient>
<linearGradient id="paint1_linear_1_172" x1="6.99976" y1="13.5002" x2="44.4649" y2="11.328" gradientUnits="userSpaceOnUse">
<stop/>
<stop offset="1" stop-color="#D73857"/>
</linearGradient>
</defs>
</svg>
