<svg width="50" height="50" viewBox="0 0 50 50" fill="none" xmlns="http://www.w3.org/2000/svg">
<rect x="4.00061" y="4.00024" width="42" height="42" rx="12" fill="url(#paint0_linear_1_157)"/>
<rect x="2.00061" y="2.00024" width="46" height="46" rx="14" stroke="url(#paint1_linear_1_157)" stroke-opacity="0.4" stroke-width="4"/>
<path d="M24.8576 13.0002C18.7043 13.0002 13.7148 17.9258 13.7148 24.0002H10.0005L14.8167 28.7547L14.9033 28.9258L19.9053 24.0002H16.191C16.191 19.2702 20.0662 15.4447 24.8576 15.4447C29.6491 15.4447 33.5243 19.2702 33.5243 24.0002C33.5243 28.7302 29.6491 32.5558 24.8576 32.5558C22.4681 32.5558 20.3014 31.5902 18.7414 30.038L16.9833 31.7736C19.0014 33.7658 21.7748 35.0002 24.8576 35.0002C31.011 35.0002 36.0005 30.0747 36.0005 24.0002C36.0005 17.9258 31.011 13.0002 24.8576 13.0002ZM23.6195 19.1114V25.2225L28.8814 28.3025L29.8348 26.738L25.4767 24.1836V19.1114H23.6195Z" fill="white"/>
<defs>
<linearGradient id="paint0_linear_1_157" x1="6.99988" y1="13.5002" x2="44.465" y2="11.328" gradientUnits="userSpaceOnUse">
<stop/>
<stop offset="1" stop-color="#D73857"/>
</linearGradient>
<linearGradient id="paint1_linear_1_157" x1="6.99988" y1="13.5002" x2="44.465" y2="11.328" gradientUnits="userSpaceOnUse">
<stop/>
<stop offset="1" stop-color="#D73857"/>
</linearGradient>
</defs>
</svg>
