<svg width="246" height="33" viewBox="0 0 246 33" fill="none" xmlns="http://www.w3.org/2000/svg">
<path d="M3 19.1526H0.692308V14.5373H3V19.1526ZM243 14.5373C244.275 14.5373 245.308 15.5704 245.308 16.845C245.308 18.1195 244.275 19.1526 243 19.1526V14.5373ZM222.231 29.9219V32.2296H217.615V29.9219H222.231ZM242.521 14.7825C243.788 14.646 244.926 15.5626 245.062 16.8298C245.199 18.097 244.282 19.2348 243.015 19.3713L242.521 14.7825ZM217.615 2.99997V0.692274H222.231V2.99997H217.615ZM3 14.5373H242.768V19.1526H3V14.5373ZM242.768 14.5373H243V19.1526H242.768V14.5373ZM217.615 29.9219C217.615 26.3665 219.601 23.6659 222.063 21.7226C224.506 19.7938 227.648 18.4102 230.613 17.417C233.606 16.4142 236.576 15.7585 238.782 15.3538C239.889 15.1506 240.814 15.0089 241.466 14.9175C241.792 14.8718 242.051 14.8386 242.23 14.8166C242.32 14.8056 242.39 14.7973 242.439 14.7917C242.463 14.7889 242.482 14.7867 242.496 14.7852C242.503 14.7844 242.509 14.7838 242.513 14.7834C242.515 14.7831 242.517 14.7829 242.518 14.7828C242.519 14.7827 242.519 14.7826 242.52 14.7826C242.52 14.7825 242.521 14.7825 242.768 17.0769C243.015 19.3713 243.016 19.3713 243.016 19.3712C243.016 19.3712 243.016 19.3712 243.016 19.3712C243.016 19.3712 243.016 19.3712 243.015 19.3713C243.014 19.3715 243.011 19.3718 243.007 19.3722C242.999 19.3732 242.985 19.3747 242.966 19.3768C242.929 19.3812 242.87 19.388 242.793 19.3975C242.638 19.4166 242.405 19.4464 242.107 19.4882C241.509 19.572 240.649 19.7036 239.615 19.8934C237.538 20.2745 234.796 20.8829 232.079 21.7933C229.332 22.7133 226.763 23.8919 224.923 25.345C223.1 26.7838 222.231 28.285 222.231 29.9219H217.615ZM242.768 16.845C242.745 19.1525 242.744 19.1525 242.743 19.1525C242.743 19.1525 242.742 19.1525 242.741 19.1525C242.739 19.1525 242.737 19.1524 242.735 19.1524C242.73 19.1524 242.724 19.1523 242.717 19.1522C242.702 19.152 242.682 19.1516 242.657 19.1511C242.606 19.1501 242.534 19.1484 242.442 19.1457C242.259 19.1402 241.996 19.1304 241.665 19.1129C241.004 19.0781 240.067 19.0127 238.947 18.8902C236.718 18.6462 233.708 18.1702 230.666 17.2332C224.811 15.4294 217.615 11.4759 217.615 2.99997H222.231C222.231 8.13825 226.458 11.1073 232.025 12.8224C234.694 13.6448 237.395 14.0774 239.449 14.3022C240.471 14.414 241.32 14.473 241.908 14.5039C242.201 14.5194 242.429 14.5279 242.58 14.5324C242.656 14.5346 242.712 14.5359 242.748 14.5366C242.766 14.537 242.778 14.5372 242.786 14.5373C242.789 14.5373 242.792 14.5374 242.792 14.5374C242.793 14.5374 242.793 14.5374 242.793 14.5374C242.793 14.5374 242.792 14.5374 242.792 14.5374C242.792 14.5374 242.791 14.5374 242.768 16.845Z" fill="#DF4550"/>
</svg>
